<svg xmlns="http://www.w3.org/2000/svg" width="820" height="360" viewBox="0 0 820 360" role="img" aria-label="Uso 24/7 da rete: perche non funziona per ACS">
  <rect width="100%" height="100%" fill="#ffffff"/>
  <text x="74" y="30" font-size="22" font-weight="700" fill="#162125">Uso 24/7 da rete: perche non funziona per ACS</text>
  <line x1="74" x2="792" y1="290" y2="290" stroke="#d9e1e2" stroke-width="1"/><text x="64" y="294" text-anchor="end" font-size="11" fill="#667">-8732</text><line x1="74" x2="792" y1="231.5" y2="231.5" stroke="#d9e1e2" stroke-width="1"/><text x="64" y="235.5" text-anchor="end" font-size="11" fill="#667">-6062</text><line x1="74" x2="792" y1="173" y2="173" stroke="#d9e1e2" stroke-width="1"/><text x="64" y="177" text-anchor="end" font-size="11" fill="#667">-3392</text><line x1="74" x2="792" y1="114.5" y2="114.5" stroke="#d9e1e2" stroke-width="1"/><text x="64" y="118.5" text-anchor="end" font-size="11" fill="#667">-722</text><line x1="74" x2="792" y1="56" y2="56" stroke="#d9e1e2" stroke-width="1"/><text x="64" y="60" text-anchor="end" font-size="11" fill="#667">1948</text>
  <line x1="74" x2="792" y1="98.6808988764045" y2="98.6808988764045" stroke="#1d2528" stroke-width="1.4"/>
  <rect x="117.75" y="56" width="92" height="42.6808988764045" rx="4" fill="#344b9b"/><text x="163.75" y="48" text-anchor="middle" font-size="13" fill="#1d2528">1948 EUR</text><text x="163.75" y="326" text-anchor="middle" font-size="13" fill="#334">BTC</text><rect x="297.25" y="84.57078651685393" width="92" height="14.11011235955057" rx="4" fill="#1b6f68"/><text x="343.25" y="76.57078651685393" text-anchor="middle" font-size="13" fill="#1d2528">644 EUR</text><text x="343.25" y="326" text-anchor="middle" font-size="13" fill="#334">Calore ACS</text><rect x="476.75" y="98.6808988764045" width="92" height="191.3191011235955" rx="4" fill="#b84d3a"/><text x="522.75" y="308" text-anchor="middle" font-size="13" fill="#1d2528">-8732 EUR</text><text x="522.75" y="326" text-anchor="middle" font-size="13" fill="#334">Energia</text><rect x="656.25" y="98.6808988764045" width="92" height="134.52808988764048" rx="4" fill="#1d2528"/><text x="702.25" y="251.208988764045" text-anchor="middle" font-size="13" fill="#1d2528">-6140 EUR</text><text x="702.25" y="326" text-anchor="middle" font-size="13" fill="#334">Netto</text>
</svg>