<svg xmlns="http://www.w3.org/2000/svg" width="820" height="360" viewBox="0 0 820 360" role="img" aria-label="Azienda: EBIT stimato per volume installazioni">
  <rect width="100%" height="100%" fill="#ffffff"/>
  <text x="74" y="30" font-size="22" font-weight="700" fill="#162125">Azienda: EBIT stimato per volume installazioni</text>
  <line x1="74" x2="792" y1="290" y2="290" stroke="#d9e1e2" stroke-width="1"/><text x="64" y="294" text-anchor="end" font-size="11" fill="#667">-241.250</text><line x1="74" x2="792" y1="231.5" y2="231.5" stroke="#d9e1e2" stroke-width="1"/><text x="64" y="235.5" text-anchor="end" font-size="11" fill="#667">-180.938</text><line x1="74" x2="792" y1="173" y2="173" stroke="#d9e1e2" stroke-width="1"/><text x="64" y="177" text-anchor="end" font-size="11" fill="#667">-120.625</text><line x1="74" x2="792" y1="114.5" y2="114.5" stroke="#d9e1e2" stroke-width="1"/><text x="64" y="118.5" text-anchor="end" font-size="11" fill="#667">-60.313</text><line x1="74" x2="792" y1="56" y2="56" stroke="#d9e1e2" stroke-width="1"/><text x="64" y="60" text-anchor="end" font-size="11" fill="#667">0</text>
  <line x1="74" x2="792" y1="56" y2="56" stroke="#1d2528" stroke-width="1.4"/>
  <rect x="147.66666666666669" y="56" width="92" height="202.4039378238342" rx="4" fill="#b84d3a"/><text x="193.66666666666669" y="276.4039378238342" text-anchor="middle" font-size="13" fill="#1d2528">-208.675 EUR</text><text x="193.66666666666669" y="326" text-anchor="middle" font-size="13" fill="#334">10/anno</text><rect x="387.00000000000006" y="56" width="92" height="220.17823834196895" rx="4" fill="#b84d3a"/><text x="433.00000000000006" y="294.17823834196895" text-anchor="middle" font-size="13" fill="#1d2528">-227.000 EUR</text><text x="433.00000000000006" y="326" text-anchor="middle" font-size="13" fill="#334">50/anno</text><rect x="626.3333333333334" y="56" width="92" height="234" rx="4" fill="#b84d3a"/><text x="672.3333333333334" y="308" text-anchor="middle" font-size="13" fill="#1d2528">-241.250 EUR</text><text x="672.3333333333334" y="326" text-anchor="middle" font-size="13" fill="#334">100/anno</text>
</svg>