<svg xmlns="http://www.w3.org/2000/svg" width="820" height="360" viewBox="0 0 820 360" role="img" aria-label="Cliente: beneficio netto annuo per scenario">
  <rect width="100%" height="100%" fill="#ffffff"/>
  <text x="74" y="30" font-size="22" font-weight="700" fill="#162125">Cliente: beneficio netto annuo per scenario</text>
  <line x1="74" x2="792" y1="290" y2="290" stroke="#d9e1e2" stroke-width="1"/><text x="64" y="294" text-anchor="end" font-size="11" fill="#667">-503</text><line x1="74" x2="792" y1="231.5" y2="231.5" stroke="#d9e1e2" stroke-width="1"/><text x="64" y="235.5" text-anchor="end" font-size="11" fill="#667">-197</text><line x1="74" x2="792" y1="173" y2="173" stroke="#d9e1e2" stroke-width="1"/><text x="64" y="177" text-anchor="end" font-size="11" fill="#667">110</text><line x1="74" x2="792" y1="114.5" y2="114.5" stroke="#d9e1e2" stroke-width="1"/><text x="64" y="118.5" text-anchor="end" font-size="11" fill="#667">417</text><line x1="74" x2="792" y1="56" y2="56" stroke="#d9e1e2" stroke-width="1"/><text x="64" y="60" text-anchor="end" font-size="11" fill="#667">723</text>
  <line x1="74" x2="792" y1="193.99510603588905" y2="193.99510603588905" stroke="#1d2528" stroke-width="1.4"/>
  <rect x="147.66666666666669" y="193.99510603588905" width="92" height="96.00489396411095" rx="4" fill="#b84d3a"/><text x="193.66666666666669" y="308" text-anchor="middle" font-size="13" fill="#1d2528">-503 EUR</text><text x="193.66666666666669" y="326" text-anchor="middle" font-size="13" fill="#334">Pessimistico</text><rect x="387.00000000000006" y="158.1125611745514" width="92" height="35.882544861337664" rx="4" fill="#d67b2a"/><text x="433.00000000000006" y="150.1125611745514" text-anchor="middle" font-size="13" fill="#1d2528">188 EUR</text><text x="433.00000000000006" y="326" text-anchor="middle" font-size="13" fill="#334">Realistico</text><rect x="626.3333333333334" y="56" width="92" height="137.99510603588905" rx="4" fill="#1b6f68"/><text x="672.3333333333334" y="48" text-anchor="middle" font-size="13" fill="#1d2528">723 EUR</text><text x="672.3333333333334" y="326" text-anchor="middle" font-size="13" fill="#334">Ottimistico</text>
</svg>