<svg xmlns="http://www.w3.org/2000/svg" width="820" height="360" viewBox="0 0 820 360" role="img" aria-label="Funnel di mercato (scala log10)">
  <rect width="100%" height="100%" fill="#ffffff"/>
  <text x="74" y="30" font-size="22" font-weight="700" fill="#162125">Funnel di mercato (scala log10)</text>
  <line x1="74" x2="792" y1="290" y2="290" stroke="#d9e1e2" stroke-width="1"/><text x="64" y="294" text-anchor="end" font-size="11" fill="#667">0</text><line x1="74" x2="792" y1="231.5" y2="231.5" stroke="#d9e1e2" stroke-width="1"/><text x="64" y="235.5" text-anchor="end" font-size="11" fill="#667">2</text><line x1="74" x2="792" y1="173" y2="173" stroke="#d9e1e2" stroke-width="1"/><text x="64" y="177" text-anchor="end" font-size="11" fill="#667">3</text><line x1="74" x2="792" y1="114.5" y2="114.5" stroke="#d9e1e2" stroke-width="1"/><text x="64" y="118.5" text-anchor="end" font-size="11" fill="#667">5</text><line x1="74" x2="792" y1="56" y2="56" stroke="#d9e1e2" stroke-width="1"/><text x="64" y="60" text-anchor="end" font-size="11" fill="#667">7</text>
  <line x1="74" x2="792" y1="290" y2="290" stroke="#1d2528" stroke-width="1.4"/>
  <rect x="99.13" y="56" width="69.40666666666667" height="234" rx="4" fill="#1b6f68"/><text x="133.83333333333331" y="48" text-anchor="middle" font-size="13" fill="#1d2528">7</text><text x="133.83333333333331" y="326" text-anchor="middle" font-size="13" fill="#334">TAM Italia</text><rect x="218.79666666666668" y="114.35374093331055" width="69.40666666666667" height="175.64625906668945" rx="4" fill="#3f8f88"/><text x="253.5" y="106.35374093331055" text-anchor="middle" font-size="13" fill="#1d2528">5</text><text x="253.5" y="326" text-anchor="middle" font-size="13" fill="#334">SAM Italia</text><rect x="338.46333333333337" y="193.3861593421504" width="69.40666666666667" height="96.61384065784961" rx="4" fill="#9bbf54"/><text x="373.1666666666667" y="185.3861593421504" text-anchor="middle" font-size="13" fill="#1d2528">3</text><text x="373.1666666666667" y="326" text-anchor="middle" font-size="13" fill="#334">SOM 3 anni Italia</text><rect x="458.13" y="113.24830842380055" width="69.40666666666667" height="176.75169157619945" rx="4" fill="#344b9b"/><text x="492.8333333333333" y="105.24830842380055" text-anchor="middle" font-size="13" fill="#1d2528">5</text><text x="492.8333333333333" y="326" text-anchor="middle" font-size="13" fill="#334">TAM TAA</text><rect x="577.7966666666667" y="178.61286447263205" width="69.40666666666667" height="111.38713552736795" rx="4" fill="#6376bd"/><text x="612.5000000000001" y="170.61286447263205" text-anchor="middle" font-size="13" fill="#1d2528">3</text><text x="612.5000000000001" y="326" text-anchor="middle" font-size="13" fill="#334">SAM TAA</text><rect x="697.4633333333334" y="234.97478268893312" width="69.40666666666667" height="55.02521731106688" rx="4" fill="#d67b2a"/><text x="732.1666666666667" y="226.97478268893312" text-anchor="middle" font-size="13" fill="#1d2528">2</text><text x="732.1666666666667" y="326" text-anchor="middle" font-size="13" fill="#334">SOM 3 anni TAA</text>
<text x="74" y="350" font-size="12" fill="#667">Valori etichette in log10 per rendere visibili TAM e SOM nello stesso grafico.</text></svg>